<?xml version="1.0" encoding="UTF-8"?>
<svg xmlns="http://www.w3.org/2000/svg" xmlns:xlink="http://www.w3.org/1999/xlink" viewBox="0 0 48 48" width="48px" height="48px">
<g id="surface1925153">
<path style="fill-rule:nonzero;fill:rgb(0%,0%,0%);fill-opacity:1;stroke-width:10;stroke-linecap:butt;stroke-linejoin:round;stroke:rgb(0%,0%,0%);stroke-opacity:1;stroke-miterlimit:10;" d="M 218.666667 26.666667 L 202.666667 208 L 128 229.333333 L 53.333333 208 L 37.333333 26.666667 Z M 218.666667 26.666667 " transform="matrix(0.1875,0,0,0.1875,0,0)"/>
<path style=" stroke:none;fill-rule:nonzero;fill:rgb(0.784314%,46.666667%,74.117649%);fill-opacity:1;" d="M 41 5 L 7 5 L 10 39 L 24 43 L 38 39 Z M 41 5 "/>
<path style=" stroke:none;fill-rule:nonzero;fill:rgb(1.176471%,60.784316%,89.803922%);fill-opacity:1;" d="M 24 8 L 24 39.898438 L 35.199219 36.699219 L 37.699219 8 Z M 24 8 "/>
<path style=" stroke:none;fill-rule:nonzero;fill:rgb(100%,100%,100%);fill-opacity:1;" d="M 33.101562 13 L 24 13 L 24 17 L 28.898438 17 L 28.601562 21 L 24 21 L 24 25 L 28.398438 25 L 28.101562 29.5 L 24 30.898438 L 24 35.101562 L 31.898438 32.5 L 32.601562 21 Z M 33.101562 13 "/>
<path style=" stroke:none;fill-rule:nonzero;fill:rgb(93.333334%,93.333334%,93.333334%);fill-opacity:1;" d="M 24 13 L 24 17 L 15.101562 17 L 14.800781 13 Z M 19.398438 21 L 19.601562 25 L 24 25 L 24 21 Z M 19.800781 27 L 15.800781 27 L 16.101562 32.5 L 24 35.101562 L 24 30.898438 L 19.898438 29.5 Z M 19.800781 27 "/>
</g>
</svg>
