<?xml version="1.0" encoding="UTF-8"?>
<svg xmlns="http://www.w3.org/2000/svg" xmlns:xlink="http://www.w3.org/1999/xlink" viewBox="0 0 48 48" width="48px" height="48px">
<g id="surface2003484">
<path style="fill-rule:nonzero;fill:rgb(0%,0%,0%);fill-opacity:1;stroke-width:10;stroke-linecap:butt;stroke-linejoin:round;stroke:rgb(0%,0%,0%);stroke-opacity:1;stroke-miterlimit:10;" d="M 5.333333 128 C 5.333333 110.3125 24.229167 94.875 53.916667 85.208333 C 47.3125 54.708333 51.1875 30.708333 66.666667 21.875 C 82.125 13.041667 104.854167 21.5625 128.020833 42.354167 C 130.854167 39.791667 133.708333 37.395833 136.541667 35.208333 C 157.333333 19.208333 176 14.395833 188.791667 21.875 C 202.125 29.333333 206.9375 48 203.729167 74.125 C 203.270833 77.708333 202.645833 81.395833 201.854167 85.145833 C 231.6875 94.791667 250.666667 110.270833 250.666667 128 C 250.666667 145.645833 231.854167 161.0625 202.25 170.729167 C 203.104167 174.708333 203.770833 178.604167 204.270833 182.395833 C 208 208.541667 202.666667 226.666667 189.333333 234.666667 C 185.0625 236.791667 180.791667 237.875 176 237.875 C 162.166667 237.875 145.208333 229.125 128.041667 213.645833 C 125 216.416667 121.958333 218.979167 118.9375 221.333333 C 105.0625 232 91.729167 237.875 80.541667 237.875 C 75.208333 237.875 70.9375 236.791667 66.666667 234.125 C 51.1875 225.291667 47.3125 201.270833 53.8125 170.75 C 24.1875 161.104167 5.333333 145.666667 5.333333 128 Z M 5.333333 128 " transform="matrix(0.1875,0,0,0.1875,0,0)"/>
<path style=" stroke:none;fill-rule:nonzero;fill:rgb(50.196081%,87.058824%,91.764706%);fill-opacity:1;" d="M 24 34 C 11.101562 34 1 29.601562 1 24 C 1 18.398438 11.101562 14 24 14 C 36.898438 14 47 18.398438 47 24 C 47 29.601562 36.898438 34 24 34 Z M 24 16 C 11.398438 16 3 20.101562 3 24 C 3 27.898438 11.398438 32 24 32 C 36.601562 32 45 27.898438 45 24 C 45 20.101562 36.601562 16 24 16 Z M 24 16 "/>
<path style=" stroke:none;fill-rule:nonzero;fill:rgb(50.196081%,87.058824%,91.764706%);fill-opacity:1;" d="M 15.101562 44.601562 C 14.101562 44.601562 13.300781 44.398438 12.5 43.898438 C 7.601562 41.101562 8.898438 30.199219 15.300781 19 C 18.300781 13.800781 22 9.398438 25.601562 6.601562 C 29.5 3.601562 33 2.699219 35.398438 4.101562 C 37.898438 5.5 38.800781 9 38.199219 13.898438 C 37.601562 18.5 35.601562 23.898438 32.601562 29.101562 C 29.601562 34.300781 25.898438 38.699219 22.300781 41.5 C 19.699219 43.5 17.199219 44.601562 15.101562 44.601562 Z M 32.898438 5.398438 C 31.300781 5.398438 29.199219 6.300781 26.898438 8.101562 C 23.5 10.800781 20 15 17.101562 20 C 10.800781 30.898438 10.199219 40.300781 13.5 42.199219 C 15.199219 43.199219 18 42.300781 21.101562 39.898438 C 24.5 37.199219 28 33 30.898438 28 C 33.800781 23 35.699219 17.898438 36.300781 13.601562 C 36.800781 9.601562 36.199219 6.800781 34.5 5.800781 C 34 5.601562 33.5 5.398438 32.898438 5.398438 Z M 32.898438 5.398438 "/>
<path style=" stroke:none;fill-rule:nonzero;fill:rgb(50.196081%,87.058824%,91.764706%);fill-opacity:1;" d="M 33 44.601562 C 28 44.601562 20.800781 38.5 15.398438 29 C 8.898438 17.800781 7.601562 6.898438 12.5 4.101562 C 17.398438 1.300781 26.199219 7.800781 32.699219 19 C 35.699219 24.199219 37.699219 29.601562 38.300781 34.199219 C 39 39.101562 38 42.5 35.5 44 C 34.699219 44.398438 33.898438 44.601562 33 44.601562 Z M 13.5 5.800781 C 10.199219 7.699219 10.800781 17.101562 17.101562 28 C 23.398438 38.898438 31.199219 44.101562 34.5 42.199219 C 36.199219 41.199219 36.800781 38.398438 36.300781 34.398438 C 35.699219 30.101562 33.800781 25 30.898438 20 C 24.601562 9.101562 16.800781 3.898438 13.5 5.800781 Z M 13.5 5.800781 "/>
<path style=" stroke:none;fill-rule:nonzero;fill:rgb(50.196081%,87.058824%,91.764706%);fill-opacity:1;" d="M 28 24 C 28 26.210938 26.210938 28 24 28 C 21.789062 28 20 26.210938 20 24 C 20 21.789062 21.789062 20 24 20 C 26.210938 20 28 21.789062 28 24 Z M 28 24 "/>
</g>
</svg>
