<?xml version="1.0" encoding="UTF-8"?>
<svg xmlns="http://www.w3.org/2000/svg" xmlns:xlink="http://www.w3.org/1999/xlink" viewBox="0 0 48 48" width="48px" height="48px">
<g id="surface1948640">
<path style="fill-rule:nonzero;fill:rgb(0%,0%,0%);fill-opacity:1;stroke-width:10;stroke-linecap:butt;stroke-linejoin:round;stroke:rgb(0%,0%,0%);stroke-opacity:1;stroke-miterlimit:10;" d="M 185.25 89.729167 C 179.416667 86.9375 173.479167 84.604167 167.479167 82.770833 C 160.583333 56.25 143.125 37.333333 122.666667 37.333333 C 96.1875 37.333333 74.666667 68.9375 74.666667 107.75 C 74.666667 128.9375 81.104167 147.895833 91.208333 160.8125 C 92.729167 160.333333 94.3125 160 96 160 C 104.833333 160 112 167.166667 112 176 C 112 184.833333 104.833333 192 96 192 C 87.166667 192 80 184.833333 80 176 C 80 174.791667 80.166667 173.625 80.416667 172.479167 C 67.104167 156.666667 58.666667 133.541667 58.666667 107.75 C 58.666667 60.104167 87.375 21.333333 122.666667 21.333333 C 153.375 21.333333 179.083333 50.708333 185.25 89.729167 Z M 233.9375 208.041667 C 227.375 219.979167 216.166667 228.354167 201.5625 232.270833 C 195.583333 233.854167 189.1875 234.645833 182.583333 234.645833 C 169.395833 234.645833 155.291667 231.520833 141.666667 225.5625 C 146.875 221.979167 151.729167 218.104167 156.208333 214 C 170.708333 218.916667 185.229167 220.0625 197.416667 216.8125 C 207.729167 214.041667 215.5 208.354167 219.916667 200.333333 C 232.645833 177.166667 215.229167 141.5 181.083333 120.8125 C 163.208333 109.958333 143.5 105.125 126.875 107.145833 C 124.541667 113.083333 118.791667 117.333333 112 117.333333 C 103.166667 117.333333 96 110.166667 96 101.333333 C 96 92.5 103.166667 85.333333 112 85.333333 C 117.020833 85.333333 121.458333 87.708333 124.395833 91.333333 C 144.708333 88.75 168.3125 94.354167 189.375 107.125 C 230.75 132.1875 250.75 177.479167 233.9375 208.041667 Z M 172.270833 170.416667 C 164.145833 188.479167 148.958333 205.8125 128.5 218.208333 C 110.791667 228.958333 91.270833 234.645833 73.416667 234.645833 C 66.8125 234.645833 60.416667 233.854167 54.4375 232.270833 C 39.833333 228.354167 28.625 219.979167 22.0625 208.041667 C 8.3125 183.041667 19.1875 148.25 46.229167 122.645833 C 47 129.25 48.270833 135.625 50 141.729167 C 33.291667 160.979167 27 183.833333 36.083333 200.333333 C 40.5 208.354167 48.270833 214.041667 58.583333 216.8125 C 76.541667 221.604167 99.583333 217.020833 120.208333 204.520833 C 137.895833 193.8125 151.041667 179.0625 157.875 164.104167 C 155.875 161.458333 154.666667 158.1875 154.666667 154.625 C 154.666667 145.8125 161.833333 138.666667 170.666667 138.666667 C 179.5 138.666667 186.666667 145.8125 186.666667 154.625 C 186.666667 162.875 180.354167 169.604167 172.270833 170.416667 Z M 172.270833 170.416667 " transform="matrix(0.1875,0,0,0.1875,0,0)"/>
<path style=" stroke:none;fill-rule:nonzero;fill:rgb(49.411765%,34.117648%,76.078433%);fill-opacity:1;" d="M 23 4 C 16.382812 4 11 11.269531 11 20.203125 C 11 25.039062 12.582031 29.375 15.078125 32.339844 C 15.03125 32.554688 15 32.773438 15 33 C 15 34.65625 16.34375 36 18 36 C 19.65625 36 21 34.65625 21 33 C 21 31.34375 19.65625 30 18 30 C 17.683594 30 17.386719 30.0625 17.101562 30.152344 C 15.207031 27.730469 14 24.175781 14 20.203125 C 14 12.925781 18.035156 7 23 7 C 26.835938 7 30.109375 10.546875 31.402344 15.519531 C 32.527344 15.863281 33.640625 16.300781 34.734375 16.824219 C 33.578125 9.507812 28.757812 4 23 4 Z M 23 4 "/>
<path style=" stroke:none;fill-rule:nonzero;fill:rgb(49.411765%,34.117648%,76.078433%);fill-opacity:1;" d="M 35.507812 20.085938 C 31.558594 17.691406 27.132812 16.640625 23.324219 17.125 C 22.773438 16.445312 21.941406 16 21 16 C 19.34375 16 18 17.34375 18 19 C 18 20.65625 19.34375 22 21 22 C 22.273438 22 23.351562 21.203125 23.789062 20.089844 C 26.90625 19.710938 30.601562 20.617188 33.953125 22.652344 C 40.355469 26.53125 43.621094 33.21875 41.234375 37.5625 C 40.40625 39.066406 38.949219 40.132812 37.015625 40.652344 C 34.730469 41.261719 32.007812 41.046875 29.289062 40.125 C 28.449219 40.894531 27.539062 41.621094 26.5625 42.292969 C 29.117188 43.410156 31.761719 43.996094 34.234375 43.996094 C 35.472656 43.996094 36.671875 43.847656 37.792969 43.550781 C 40.53125 42.816406 42.632812 41.246094 43.863281 39.007812 C 47.015625 33.277344 43.265625 24.785156 35.507812 20.085938 Z M 35.507812 20.085938 "/>
<path style=" stroke:none;fill-rule:nonzero;fill:rgb(49.411765%,34.117648%,76.078433%);fill-opacity:1;" d="M 35 28.992188 C 35 27.339844 33.65625 26 32 26 C 30.34375 26 29 27.339844 29 28.992188 C 29 29.660156 29.226562 30.273438 29.601562 30.769531 C 28.320312 33.574219 25.855469 36.339844 22.539062 38.347656 C 18.671875 40.691406 14.351562 41.550781 10.984375 40.652344 C 9.050781 40.132812 7.59375 39.066406 6.765625 37.5625 C 5.0625 34.46875 6.242188 30.183594 9.375 26.574219 C 9.050781 25.429688 8.8125 24.234375 8.667969 22.996094 C 3.597656 27.796875 1.558594 34.320312 4.136719 39.007812 C 5.367188 41.246094 7.46875 42.816406 10.207031 43.550781 C 11.328125 43.847656 12.527344 43.996094 13.765625 43.996094 C 17.113281 43.996094 20.773438 42.929688 24.09375 40.914062 C 27.929688 38.589844 30.777344 35.339844 32.300781 31.953125 C 33.816406 31.800781 35 30.539062 35 28.992188 Z M 35 28.992188 "/>
</g>
</svg>
