<?xml version="1.0" encoding="UTF-8"?>
<svg xmlns="http://www.w3.org/2000/svg" xmlns:xlink="http://www.w3.org/1999/xlink" viewBox="0 0 48 48" width="48px" height="48px">
<defs>
<linearGradient id="linear0" gradientUnits="userSpaceOnUse" x1="9.8" y1="25.236" x2="11.081" y2="36.898998" gradientTransform="matrix(0.999999,0,0,0.999999,0,0)">
<stop offset="0" style="stop-color:rgb(1.960784%,56.078434%,57.254905%);stop-opacity:1;"/>
<stop offset="0.5" style="stop-color:rgb(1.176471%,51.764709%,53.725493%);stop-opacity:1;"/>
<stop offset="1" style="stop-color:rgb(0.784314%,42.745098%,44.313726%);stop-opacity:1;"/>
</linearGradient>
<linearGradient id="linear1" gradientUnits="userSpaceOnUse" x1="34.223999" y1="25.643999" x2="35.101002" y2="35.216999" gradientTransform="matrix(0.999999,0,0,0.999999,0,0)">
<stop offset="0" style="stop-color:rgb(100%,61.176473%,5.882353%);stop-opacity:1;"/>
<stop offset="0.813" style="stop-color:rgb(83.92157%,49.411765%,0%);stop-opacity:1;"/>
</linearGradient>
<linearGradient id="linear2" gradientUnits="userSpaceOnUse" x1="35.028999" y1="11.716" x2="40.355" y2="26.75" gradientTransform="matrix(0.999999,0,0,0.999999,0,0)">
<stop offset="0" style="stop-color:rgb(1.960784%,56.078434%,57.254905%);stop-opacity:1;"/>
<stop offset="0.5" style="stop-color:rgb(1.176471%,51.764709%,53.725493%);stop-opacity:1;"/>
<stop offset="1" style="stop-color:rgb(0.784314%,42.745098%,44.313726%);stop-opacity:1;"/>
</linearGradient>
</defs>
<g id="surface2410318">
<path style="fill-rule:nonzero;fill:rgb(0%,0%,0%);fill-opacity:0.21961;stroke-width:10;stroke-linecap:butt;stroke-linejoin:round;stroke:rgb(0%,0%,0%);stroke-opacity:0.21961;stroke-miterlimit:10;" d="M 0.0208333 186.875 L 0 186.875 L 0 148.166667 C 0 144.458333 1.479167 142.645833 4.520833 141.729167 C 11.833333 139.4375 16.8125 141.416667 18.9375 146.375 L 33.0625 179.229167 L 47.645833 146.375 C 49.854167 141.416667 54.75 139.4375 62.041667 141.729167 C 65.083333 142.645833 66.5625 144.458333 66.5625 148.166667 L 66.5625 186.875 L 56.333333 186.875 L 56.333333 149.916667 L 42.104167 181.395833 C 40.354167 185.4375 38.041667 186.854167 33.333333 186.854167 C 28.625 186.854167 26.229167 185.4375 24.479167 181.395833 L 10.25 149.104167 L 10.25 186.875 Z M 71.6875 156.166667 L 81.916667 156.166667 L 81.916667 177.791667 C 81.854167 178.854167 82.270833 181.6875 87.208333 181.770833 C 89.729167 181.8125 102.25 181.770833 102.395833 181.770833 L 102.395833 156.166667 L 112.645833 156.166667 C 112.6875 156.166667 112.645833 188 112.645833 188.125 C 112.708333 195.979167 102.895833 197 98.395833 197.125 L 71.6875 197.125 L 71.6875 192 C 71.75 192 97.229167 192.020833 97.291667 192 C 103.104167 191.395833 102.416667 188.1875 102.416667 187.229167 L 102.416667 186.875 L 86.354167 186.875 C 77.4375 186.8125 71.75 182.875 71.6875 178.395833 C 71.6875 177.979167 71.895833 156.354167 71.6875 156.166667 Z M 117.75 186.875 L 117.75 181.75 C 117.75 181.75 142.916667 181.75 143.291667 181.75 C 148.3125 181.75 148.479167 177.354167 148.479167 176.645833 L 148.479167 171.520833 C 148.479167 170.875 149.104167 166.395833 143.354167 166.395833 C 143.0625 166.333333 133.104167 166.520833 133.104167 166.520833 C 132.145833 166.520833 131.1875 166.458333 130.229167 166.395833 C 121.6875 165.5 117.75 161.854167 117.75 157.375 L 117.75 151.041667 C 117.75 141.291667 130.333333 140.8125 134.354167 140.8125 L 158.708333 140.8125 L 158.708333 145.916667 C 158.708333 145.916667 137.041667 145.916667 132.916667 145.916667 C 129.375 146.25 128.479167 149 128 151.041667 L 128 156.166667 C 128.479167 158.854167 129.083333 161.291667 133.125 161.291667 L 143.354167 161.291667 C 148.958333 161.291667 158.729167 161.604167 158.729167 169.479167 L 158.729167 176.770833 C 158.729167 180.291667 156.9375 182.979167 152.625 184.958333 C 150.020833 186.1875 146.770833 186.875 143.395833 186.875 Z M 215.041667 140.791667 L 225.270833 140.791667 L 225.270833 176.375 C 225.270833 179.541667 227.0625 181.75 232.354167 181.75 L 256 181.75 L 256 186.875 L 230.395833 186.875 C 229.520833 186.875 228.666667 186.833333 227.791667 186.770833 C 218.541667 186.083333 215.041667 182.604167 215.041667 176.416667 Z M 163.75 176.645833 L 163.75 151.041667 C 163.75 145.604167 166.416667 141.854167 173.979167 140.8125 L 198.75 140.8125 C 206.291667 141.854167 209.833333 145.604167 209.833333 151.041667 L 209.833333 176.541667 C 209.833333 180.958333 208.6875 183.333333 204.958333 184.854167 L 212.875 192 L 201.375 192 L 195.666667 186.875 L 188.958333 186.875 L 177.5625 186.9375 C 175.916667 186.9375 174.166667 186.708333 172.270833 186.1875 C 166.541667 184.625 163.75 181.625 163.75 176.645833 Z M 241.6875 131.5 C 239.479167 129.9375 237.1875 128.25 234.8125 126.8125 C 233.583333 126.0625 231.4375 125.5 230.125 124.9375 C 228.270833 124.145833 224.145833 123.395833 223.083333 121.958333 C 221.0625 119.270833 219.666667 115.979167 218.25 112.75 C 216.8125 109.479167 215 106.0625 213.541667 102.729167 C 212.833333 101.083333 212.5 99.604167 211.6875 98.041667 C 206.645833 88.375 199.270833 80.291667 190.270833 74.604167 C 187.3125 72.729167 184.0625 71.020833 180.416667 69.916667 C 178.354167 69.291667 175.895833 69.625 173.6875 69.125 C 173.229167 69.125 172.75 69.125 172.291667 69.125 C 171.0625 68.770833 170.020833 67.458333 169 66.770833 C 166.875 65.375 164.791667 64.375 162.291667 63.333333 C 161.333333 62.9375 158.8125 62.020833 157.916667 62.708333 C 157.375 62.895833 157.145833 63.125 156.979167 63.645833 C 156.4375 64.458333 156.9375 65.6875 157.291667 66.479167 C 158.291667 68.645833 159.75 69.979167 161.041667 71.791667 C 162.208333 73.416667 163.645833 75.25 164.479167 77.083333 C 166.25 80.9375 167.833333 85.333333 169.5 89.125 C 170.145833 90.583333 171.083333 92.25 172.020833 93.5 C 172.75 94.520833 174.104167 95.291667 174.5 96.645833 C 175.354167 97.979167 173.25 102.541667 172.791667 103.979167 C 170.979167 109.583333 171.354167 117.416667 173.416667 122.270833 C 174.208333 124.208333 174.979167 126.4375 177.166667 126.958333 C 177.3125 126.833333 177.208333 126.916667 177.479167 126.8125 C 177.9375 123.0625 178.104167 119.458333 179.354167 116.5 C 180.125 114.645833 181.625 113.375 182.625 111.8125 C 183.375 112.229167 183.375 113.479167 183.729167 114.3125 C 184.645833 116.458333 185.604167 118.770833 186.6875 120.875 C 188.979167 125.270833 191.5 129.520833 194.354167 133.375 C 195.354167 134.75 196.729167 136.25 197.9375 137.4375 C 198.458333 137.958333 199.104167 138.208333 199.5 138.854167 C 199.5625 138.854167 199.625 138.854167 199.666667 138.854167 C 199.666667 138.916667 199.666667 138.958333 199.666667 139.020833 C 197.5625 138.291667 196.291667 136.166667 194.666667 134.958333 C 191.541667 132.583333 187.854167 129.083333 185.75 125.729167 C 184.8125 123.854167 183.875 121.958333 182.9375 120.104167 C 182.9375 120.041667 182.9375 119.979167 182.9375 119.9375 C 182.541667 120.458333 182.666667 121.020833 182.479167 121.8125 C 181.604167 125.25 182.291667 129.145833 179.1875 130.395833 C 175.666667 131.854167 173.083333 128.083333 172 126.333333 C 168.458333 120.645833 167.520833 111.0625 169.979167 103.375 C 170.520833 101.645833 170.5625 99.541667 171.541667 98.208333 C 171.375 96.979167 170.395833 96.645833 169.8125 95.854167 C 168.875 94.583333 168.0625 93.0625 167.3125 91.645833 C 165.833333 88.8125 164.041667 85.3125 162.916667 82.25 C 162.458333 81.020833 162.354167 79.833333 161.8125 78.666667 C 161 76.875 159.520833 75.083333 158.375 73.5 C 156.729167 71.229167 152.166667 66.875 154 62.395833 C 156.895833 55.3125 166.958333 60.708333 170.875 63.1875 C 171.875 63.8125 172.958333 65.083333 174 65.520833 C 175.729167 65.645833 177.4375 65.75 179.166667 65.854167 C 182.375 66.604167 185.416667 67.1875 187.916667 68.666667 C 199.75 75.583333 207.395833 82.625 214.5 94.291667 C 215.979167 96.729167 216.75 99.416667 217.9375 102.125 C 219.666667 106.083333 221.604167 110.208333 223.5625 114 C 224.5 115.791667 225.166667 117.75 226.375 119.3125 C 226.875 119.958333 228.25 120.166667 229.020833 120.5625 C 231.333333 121.729167 234.041667 122.625 236.208333 124 C 240.145833 126.479167 243.958333 129.458333 247.479167 132.4375 C 248.8125 133.583333 249.6875 135.25 250.916667 136.5 C 250.916667 136.708333 250.916667 136.916667 250.916667 137.125 C 249.8125 137.4375 248.729167 137.75 247.625 138.0625 C 245.208333 138.6875 243.104167 138.520833 240.75 139.166667 C 239.354167 139.520833 237.583333 140.083333 236.0625 140.25 C 236.125 140.3125 236.166667 140.354167 236.229167 140.416667 C 237.125 142.895833 241.916667 144.979167 244.041667 146.5 C 246.729167 148.416667 249.25 150.75 251.229167 153.375 C 251.916667 154.0625 252.583333 154.729167 253.270833 155.416667 C 253.729167 156.083333 253.854167 156.958333 254.354167 157.604167 C 254.354167 157.666667 254.354167 157.708333 254.354167 157.75 C 253.395833 157.416667 252.916667 156.583333 252.166667 156.041667 C 250.6875 154.958333 249.166667 153.729167 247.645833 152.75 C 245.041667 151.125 242.041667 150.166667 239.354167 148.541667 C 237.854167 147.625 236.395833 146.479167 234.979167 145.416667 C 233.6875 144.4375 232.25 142.583333 231.395833 141.1875 C 230.9375 140.479167 230.854167 139.583333 230.291667 139 C 230.458333 137.729167 232.083333 137.708333 233.104167 137.270833 C 236.708333 135.770833 240.895833 135.25 246.395833 135.416667 C 246.229167 134 242.8125 132.291667 241.6875 131.5 Z M 178.395833 77.416667 C 178.729167 77.916667 178.791667 78.416667 179.1875 78.833333 C 179.1875 80.5 178.729167 81.583333 177.770833 82.270833 C 177.708333 82.333333 177.666667 82.375 177.625 82.416667 C 177.083333 81.333333 176.583333 80.25 176.0625 79.145833 C 175.375 78.1875 174.416667 77.458333 173.875 76.333333 C 173.8125 76.333333 173.75 76.333333 173.708333 76.333333 C 173.708333 76.270833 173.708333 76.229167 173.708333 76.166667 C 174.5625 75.979167 175.375 75.833333 176.520833 75.854167 C 177.083333 76.395833 177.9375 76.770833 178.395833 77.416667 Z M 178.395833 77.416667 " transform="matrix(0.1875,0,0,0.1875,0,0)"/>
<path style=" stroke:none;fill-rule:nonzero;fill:url(#linear0);" d="M 0.00390625 35.039062 L 1.921875 35.039062 L 1.921875 27.957031 L 4.589844 34.011719 C 4.917969 34.769531 5.367188 35.035156 6.25 35.035156 C 7.132812 35.035156 7.566406 34.769531 7.894531 34.011719 L 10.5625 28.109375 L 10.5625 35.039062 L 12.480469 35.039062 L 12.480469 27.78125 C 12.480469 27.085938 12.203125 26.746094 11.632812 26.574219 C 10.265625 26.144531 9.347656 26.515625 8.933594 27.445312 L 6.199219 33.605469 L 3.550781 27.445312 C 3.152344 26.515625 2.21875 26.144531 0.847656 26.574219 C 0.277344 26.746094 0 27.085938 0 27.78125 L 0 35.039062 Z M 13.441406 29.28125 L 15.359375 29.28125 L 15.359375 33.335938 C 15.347656 33.535156 15.425781 34.066406 16.351562 34.082031 C 16.824219 34.089844 19.171875 34.082031 19.199219 34.082031 L 19.199219 29.28125 L 21.121094 29.28125 C 21.128906 29.28125 21.121094 35.25 21.121094 35.273438 C 21.132812 36.746094 19.292969 36.9375 18.449219 36.960938 L 13.441406 36.960938 L 13.441406 36 C 13.453125 36 18.230469 36.003906 18.242188 36 C 19.332031 35.886719 19.203125 35.285156 19.203125 35.105469 L 19.203125 35.039062 L 16.191406 35.039062 C 14.519531 35.027344 13.453125 34.289062 13.441406 33.449219 C 13.441406 33.371094 13.480469 29.316406 13.441406 29.28125 Z M 13.441406 29.28125 "/>
<path style=" stroke:none;fill-rule:nonzero;fill:url(#linear1);" d="M 22.082031 35.039062 L 26.886719 35.039062 C 27.519531 35.039062 28.128906 34.910156 28.617188 34.679688 C 29.425781 34.308594 29.761719 33.804688 29.761719 33.144531 L 29.761719 31.777344 C 29.761719 30.300781 27.929688 30.242188 26.878906 30.242188 L 24.960938 30.242188 C 24.203125 30.242188 24.089844 29.785156 24 29.28125 L 24 28.320312 C 24.089844 27.9375 24.257812 27.421875 24.921875 27.359375 C 25.695312 27.359375 29.757812 27.359375 29.757812 27.359375 L 29.757812 26.402344 L 25.191406 26.402344 C 24.4375 26.402344 22.078125 26.492188 22.078125 28.320312 L 22.078125 29.507812 C 22.078125 30.347656 22.816406 31.03125 24.417969 31.199219 C 24.597656 31.210938 24.777344 31.222656 24.957031 31.222656 C 24.957031 31.222656 26.824219 31.1875 26.878906 31.199219 C 27.957031 31.199219 27.839844 32.039062 27.839844 32.160156 L 27.839844 33.121094 C 27.839844 33.253906 27.808594 34.078125 26.867188 34.078125 C 26.796875 34.078125 22.078125 34.078125 22.078125 34.078125 L 22.078125 35.039062 Z M 40.320312 33.078125 C 40.320312 34.238281 40.976562 34.890625 42.710938 35.019531 C 42.875 35.03125 43.035156 35.039062 43.199219 35.039062 L 48 35.039062 L 48 34.078125 L 43.566406 34.078125 C 42.574219 34.078125 42.238281 33.664062 42.238281 33.070312 L 42.238281 26.398438 L 40.320312 26.398438 Z M 30.703125 33.121094 L 30.703125 28.320312 C 30.703125 27.300781 31.203125 26.597656 32.621094 26.402344 L 37.265625 26.402344 C 38.679688 26.597656 39.34375 27.300781 39.34375 28.320312 L 39.34375 33.101562 C 39.34375 33.929688 39.128906 34.375 38.429688 34.660156 L 39.914062 36 L 37.757812 36 L 36.6875 35.039062 L 35.429688 35.039062 L 33.292969 35.050781 C 32.984375 35.050781 32.65625 35.007812 32.300781 34.910156 C 31.226562 34.617188 30.703125 34.054688 30.703125 33.121094 Z M 32.625 33.121094 C 32.722656 33.589844 33.097656 34.082031 33.765625 34.082031 L 35.628906 34.082031 L 34.558594 33.121094 L 36.734375 33.121094 L 37.253906 33.601562 C 37.253906 33.601562 37.441406 33.449219 37.441406 33.121094 C 37.441406 32.789062 37.425781 28.320312 37.425781 28.320312 C 37.324219 27.886719 36.886719 27.359375 36.234375 27.359375 L 33.765625 27.359375 C 33.015625 27.359375 32.625 27.910156 32.625 28.417969 Z M 32.625 33.121094 "/>
<path style=" stroke:none;fill-rule:nonzero;fill:url(#linear2);" d="M 46.199219 25.390625 C 45.167969 25.359375 44.382812 25.457031 43.707031 25.738281 C 43.515625 25.820312 43.210938 25.824219 43.179688 26.0625 C 43.285156 26.171875 43.300781 26.339844 43.386719 26.472656 C 43.546875 26.734375 43.816406 27.082031 44.058594 27.265625 C 44.324219 27.464844 44.597656 27.679688 44.878906 27.851562 C 45.382812 28.15625 45.945312 28.332031 46.433594 28.640625 C 46.71875 28.824219 47.003906 29.054688 47.28125 29.257812 C 47.421875 29.359375 47.511719 29.515625 47.691406 29.578125 C 47.691406 29.570312 47.691406 29.5625 47.691406 29.550781 C 47.597656 29.429688 47.574219 29.265625 47.488281 29.140625 C 47.359375 29.011719 47.234375 28.886719 47.105469 28.757812 C 46.734375 28.265625 46.261719 27.828125 45.757812 27.46875 C 45.359375 27.183594 44.460938 26.792969 44.292969 26.328125 C 44.28125 26.316406 44.273438 26.308594 44.261719 26.296875 C 44.546875 26.265625 44.878906 26.160156 45.140625 26.09375 C 45.582031 25.972656 45.976562 26.003906 46.429688 25.886719 C 46.636719 25.828125 46.839844 25.769531 47.046875 25.710938 C 47.046875 25.671875 47.046875 25.632812 47.046875 25.59375 C 46.816406 25.359375 46.652344 25.046875 46.402344 24.832031 C 45.742188 24.273438 45.027344 23.714844 44.289062 23.25 C 43.882812 22.992188 43.375 22.824219 42.941406 22.605469 C 42.796875 22.53125 42.539062 22.492188 42.445312 22.371094 C 42.21875 22.078125 42.09375 21.710938 41.917969 21.375 C 41.550781 20.664062 41.1875 19.890625 40.863281 19.148438 C 40.640625 18.640625 40.496094 18.136719 40.21875 17.679688 C 38.886719 15.492188 37.453125 14.171875 35.234375 12.875 C 34.765625 12.597656 34.195312 12.488281 33.59375 12.347656 C 33.269531 12.328125 32.949219 12.308594 32.625 12.285156 C 32.429688 12.203125 32.226562 11.964844 32.039062 11.847656 C 31.304688 11.382812 29.417969 10.371094 28.875 11.699219 C 28.53125 12.539062 29.386719 13.355469 29.695312 13.78125 C 29.910156 14.078125 30.1875 14.414062 30.339844 14.75 C 30.441406 14.96875 30.457031 15.191406 30.546875 15.421875 C 30.757812 15.996094 31.09375 16.652344 31.371094 17.183594 C 31.511719 17.449219 31.664062 17.734375 31.839844 17.972656 C 31.949219 18.121094 32.132812 18.183594 32.164062 18.414062 C 31.980469 18.664062 31.972656 19.058594 31.871094 19.382812 C 31.410156 20.824219 31.585938 22.621094 32.25 23.6875 C 32.453125 24.015625 32.9375 24.722656 33.597656 24.449219 C 34.179688 24.214844 34.050781 23.484375 34.214844 22.839844 C 34.25 22.691406 34.226562 22.585938 34.300781 22.488281 C 34.300781 22.496094 34.300781 22.507812 34.300781 22.519531 C 34.476562 22.867188 34.652344 23.222656 34.828125 23.574219 C 35.222656 24.203125 35.914062 24.859375 36.5 25.304688 C 36.804688 25.53125 37.042969 25.929688 37.4375 26.066406 C 37.4375 26.054688 37.4375 26.046875 37.4375 26.035156 C 37.429688 26.035156 37.417969 26.035156 37.40625 26.035156 C 37.332031 25.914062 37.210938 25.867188 37.113281 25.769531 C 36.886719 25.546875 36.628906 25.265625 36.441406 25.007812 C 35.90625 24.285156 35.433594 23.488281 35.003906 22.664062 C 34.800781 22.269531 34.621094 21.835938 34.449219 21.433594 C 34.382812 21.277344 34.382812 21.042969 34.242188 20.964844 C 34.054688 21.257812 33.773438 21.496094 33.628906 21.84375 C 33.394531 22.398438 33.363281 23.074219 33.277344 23.777344 C 33.226562 23.796875 33.246094 23.78125 33.21875 23.804688 C 32.808594 23.707031 32.664062 23.289062 32.515625 22.925781 C 32.128906 22.015625 32.058594 20.546875 32.398438 19.496094 C 32.484375 19.226562 32.878906 18.371094 32.71875 18.121094 C 32.644531 17.867188 32.390625 17.722656 32.253906 17.53125 C 32.078125 17.296875 31.902344 16.984375 31.78125 16.710938 C 31.46875 16 31.171875 15.175781 30.839844 14.453125 C 30.683594 14.109375 30.414062 13.765625 30.195312 13.460938 C 29.953125 13.121094 29.679688 12.871094 29.492188 12.464844 C 29.425781 12.316406 29.332031 12.085938 29.433594 11.933594 C 29.464844 11.835938 29.507812 11.792969 29.609375 11.757812 C 29.777344 11.628906 30.25 11.800781 30.429688 11.875 C 30.898438 12.070312 31.289062 12.257812 31.6875 12.519531 C 31.878906 12.648438 32.074219 12.894531 32.304688 12.960938 C 32.390625 12.960938 32.480469 12.960938 32.566406 12.960938 C 32.980469 13.054688 33.441406 12.992188 33.828125 13.109375 C 34.511719 13.316406 35.121094 13.636719 35.675781 13.988281 C 37.363281 15.054688 38.746094 16.570312 39.691406 18.382812 C 39.84375 18.675781 39.90625 18.953125 40.039062 19.261719 C 40.3125 19.886719 40.652344 20.527344 40.921875 21.140625 C 41.1875 21.746094 41.449219 22.363281 41.828125 22.867188 C 42.027344 23.136719 42.800781 23.277344 43.148438 23.425781 C 43.394531 23.53125 43.796875 23.636719 44.027344 23.777344 C 44.472656 24.046875 44.902344 24.363281 45.316406 24.65625 C 45.527344 24.804688 46.167969 25.125 46.199219 25.390625 Z M 46.199219 25.390625 "/>
<path style=" stroke:none;fill-rule:nonzero;fill:rgb(0%,47.450981%,41.960785%);fill-opacity:1;" d="M 33.097656 14.222656 C 32.882812 14.21875 32.730469 14.246094 32.570312 14.28125 C 32.570312 14.292969 32.570312 14.300781 32.570312 14.3125 C 32.578125 14.3125 32.589844 14.3125 32.601562 14.3125 C 32.703125 14.523438 32.882812 14.660156 33.011719 14.839844 C 33.109375 15.046875 33.203125 15.25 33.304688 15.453125 C 33.3125 15.445312 33.320312 15.4375 33.332031 15.425781 C 33.511719 15.296875 33.597656 15.09375 33.597656 14.78125 C 33.523438 14.703125 33.511719 14.609375 33.449219 14.515625 C 33.363281 14.394531 33.203125 14.324219 33.097656 14.222656 Z M 33.097656 14.222656 "/>
</g>
</svg>
